inDegrees=no
num_controls=7
num_derivatives=13
num_iterations=158
num_multipliers=7
num_parameters=0
num_slacks=7
num_states=26
objective=5.603570
objective_accelerations=0.281954
objective_balance=0.015809
objective_effort=0.374054
objective_height=4.844231
objective_ligament=0.087522
solver_duration=1349.136641
status=Solve_Succeeded
success=true
DataType=double
version=3
OpenSimVersion=4.4-2022-07-23-0e9fedc
endheader
time	/jointset/ground_pelvis/pelvis_tilt/value	/jointset/ground_pelvis/pelvis_tx/value	/jointset/ground_pelvis/pelvis_ty/value	/jointset/hip_r/hip_flexion_r/value	/jointset/hip_r/hip_adduction_r/value	/jointset/hip_r/hip_rotation_r/value	/jointset/back/lumbar_extension/value	/jointset/patellofemoral_r/patellar_flexion_r/value	/jointset/knee_r/knee_flexion_r/value	/jointset/knee_r/knee_adduction_r/value	/jointset/knee_r/knee_rotation_r/value	/jointset/ankle_r/ankle_angle_r/value	/jointset/subtalar_r/subtalar_angle_r/value	/jointset/ground_pelvis/pelvis_tilt/speed	/jointset/ground_pelvis/pelvis_tx/speed	/jointset/ground_pelvis/pelvis_ty/speed	/jointset/hip_r/hip_flexion_r/speed	/jointset/hip_r/hip_adduction_r/speed	/jointset/hip_r/hip_rotation_r/speed	/jointset/back/lumbar_extension/speed	/jointset/patellofemoral_r/patellar_flexion_r/speed	/jointset/knee_r/knee_flexion_r/speed	/jointset/knee_r/knee_adduction_r/speed	/jointset/knee_r/knee_rotation_r/speed	/jointset/ankle_r/ankle_angle_r/speed	/jointset/subtalar_r/subtalar_angle_r/speed	/forceset/tau_hip_flexion_r	/forceset/tau_hip_adduction_r	/forceset/tau_hip_rotation_r	/forceset/tau_knee_flexion_r	/forceset/tau_ankle_angle_r	/forceset/tau_subtalar_angle_r	/forceset/tau_lumbar_extension	lambda_cid13_p0	lambda_cid14_p0	lambda_cid14_p1	lambda_cid14_p2	lambda_cid14_p3	lambda_cid14_p4	lambda_cid14_p5	/jointset/ground_pelvis/pelvis_tilt/accel	/jointset/ground_pelvis/pelvis_tx/accel	/jointset/ground_pelvis/pelvis_ty/accel	/jointset/hip_r/hip_flexion_r/accel	/jointset/hip_r/hip_adduction_r/accel	/jointset/hip_r/hip_rotation_r/accel	/jointset/back/lumbar_extension/accel	/jointset/patellofemoral_r/patellar_flexion_r/accel	/jointset/knee_r/knee_flexion_r/accel	/jointset/knee_r/knee_adduction_r/accel	/jointset/knee_r/knee_rotation_r/accel	/jointset/ankle_r/ankle_angle_r/accel	/jointset/subtalar_r/subtalar_angle_r/accel	gamma_cid13_p0	gamma_cid14_p0	gamma_cid14_p1	gamma_cid14_p2	gamma_cid14_p3	gamma_cid14_p4	gamma_cid14_p5
1.5	-0.05590366631423441	0.08051515801372731	0.8940804819527978	0.5242091791507419	-0.2206297142474456	-0.1690993080007449	-0.2643452548571317	0.5410987535471176	0.5410987535470594	0.04318925766645536	0.1745177957681803	0.2409732159958284	0.06313932471247381	0.08258952541750096	0.07562355855616097	0.2278194294073586	-1.054663613005148	0.0126912918670392	-0.229063845835436	0.6947553299430026	-1.483161011368109	-1.483161011368279	0.278332627496118	8.909358328732467e-05	-0.5954245283912506	-0.1574616317829151	-0.02749456576517605	-0.02247317904582354	0.002258333640225425	-0.3075144954993878	0.05458578057426772	-0.01328155061529486	0.09644447402745017	-39.05901060543613	-24.75369717154556	-5.480811792455643	-3.945172049146372	3.812368365621213	-669.5939601288943	60.02112865619628	-0.001074443568552268	0.1730890373697116	-0.3525905872919607	-0.5063467255307722	-0.06355244525579007	-0.4769376508755624	0.9599444766237951	-0.6930060451120937	-0.6930060451120942	0.3621422366083092	-0.002563732641562435	-0.297929759565377	-0.04190823943010911	8.433575314950697e-08	9.766281247807118e-08	-5.104431273568021e-07	9.446255058500112e-07	7.483866156952846e-09	9.588388790698349e-08	-8.53262089225365e-07
1.51	-0.05507826767071155	0.08127990689553315	0.8963405231496365	0.5136389976850494	-0.220506673398694	-0.1714130255544493	-0.2573504166636451	0.5262346606880363	0.5262346606881061	0.04599217378104239	0.1745187104037169	0.2350046495384166	0.06156187156142821	0.08247449765053032	0.0773110545461474	0.2241439962090419	-1.059217854593859	0.01191559153673588	-0.2336646197004419	0.7041060822375403	-1.489446224246485	-1.489446224246618	0.2822319027994284	8.922690839582625e-05	-0.5982103849856354	-0.1580067187185669	-0.02309863227209191	-0.02410513697816584	0.001655005092923712	-0.3047782992297555	0.05889237689630797	-0.01418122216055378	0.09218144823476072	-39.59200060017	-23.3138535148146	-5.548159266553194	-4.0158464095135	3.315545585299299	-667.5171636967868	60.04098406063471	-0.01906229288887335	0.1643093093682542	-0.3817200526378984	-0.4067269400815113	-0.08466250083013259	-0.4492302853443081	0.9067066283635362	-0.564597931686316	-0.5645979316807349	0.4009950202580472	0.0007778037445077667	-0.2571450739014828	-0.05745451775307114	9.286377663712929e-08	1.003444258312082e-07	-6.097644180092966e-07	9.703261120987534e-07	1.547560695242267e-08	1.041979118007217e-07	-9.246268005183275e-07
1.52	-0.05425448837477147	0.08206107662315032	0.8985624699411846	0.5030279209905641	-0.220391406288012	-0.1737722674530207	-0.2502652577427116	0.5113140518957746	0.5113140518958182	0.04883351761728343	0.1745195215600163	0.2290105782221568	0.05997963842160232	0.08226565589842853	0.07890772771843504	0.2202005483492655	-1.062842658764178	0.01113654424997332	-0.2381687148066828	0.7128194754318461	-1.494464198024299	-1.494464198024395	0.2860181718253699	6.839777982008632e-05	-0.6005255001610795	-0.1584176295390397	-0.01870269877908476	-0.02573709491064482	0.001051676544565565	-0.3020421029601149	0.0631989732183089	-0.01508089370598322	0.08791842244203993	-40.08665060040605	-21.88307851108753	-5.613564817717306	-4.090862829157162	2.812533971697281	-665.5966810673066	60.13040554527628	-0.01983724059471618	0.1549244738299135	-0.4061935195839231	-0.3204592418523611	-0.06422183654761605	-0.4576018991225536	0.8324726565774179	-0.4395582249995419	-0.4395582249995429	0.339540981134524	-0.006756223378389367	-0.2037814757772277	-0.01507301639435031	1.010968734636112e-07	1.045591964670522e-07	-7.039520935024789e-07	9.986136596545085e-07	2.121386254878953e-08	1.197371977541314e-07	-9.93477027668178e-07
1.53	-0.05343309230902057	0.08285778041387838	0.9007437071732908	0.4923849992450147	-0.2202840095593267	-0.1761761698753249	-0.2430962794776657	0.4963496135638167	0.4963496135639205	0.05171222413676712	0.1745201671638783	0.2229957635432354	0.05839390206099603	0.08200277874261599	0.08041950004382882	0.2160059344549966	-1.06558767745287	0.01034029646584504	-0.2425901052746875	0.7208707262850226	-1.498197147641317	-1.498197147641347	0.289704368435712	5.636609899719358e-05	-0.6023474799568129	-0.1587070004069894	-0.01430077002679818	-0.02749842760816723	0.0004651410675833332	-0.2993451940818918	0.06766404559996522	-0.01609719437978777	0.08367589360080099	-40.54284933705932	-20.40850102791444	-5.727436777374269	-4.151887851736917	2.265075199351839	-663.7116098429683	60.161133337207	-0.03111958333856798	0.1472793238125519	-0.4322087904767699	-0.2284087793285381	-0.08760306972551075	-0.4309791648357376	0.7756336058731165	-0.3062378737664715	-0.3062378737565628	0.38030385576381	0.001098332121386985	-0.1578966177682012	-0.03248127288406879	1.090166107126314e-07	1.104029467157725e-07	-7.926853028888922e-07	1.029649832348965e-06	2.455779012110952e-08	1.42953324645942e-07	-1.059655615415972e-06
1.54	-0.05261464634086879	0.08366919707024455	0.9028817755732288	0.4817192501931895	-0.2201846306725437	-0.1786236005111567	-0.2358499522428483	0.4813546308270433	0.481354630827057	0.05462722159331995	0.1745205974452379	0.2169654309890984	0.05680594956153267	0.08167563637621252	0.08185030084605764	0.2115667819156214	-1.067408120019599	0.009532975866558236	-0.2468743575105324	0.72828926938559	-1.500573079006876	-1.500573079006839	0.2932763592372528	2.533332041570045e-05	-0.6036290752044203	-0.1588608573104967	-0.009898841274595038	-0.02925976030583103	-0.0001213944103965091	-0.2966482852036621	0.07212911798157769	-0.0171134950537685	0.07943336475953093	-40.95968875734002	-18.94060972406263	-5.838695900737091	-4.217651773031154	1.705770536394092	-661.9485666187144	60.26178712212101	-0.0326902827128028	0.1387301691968595	-0.4551012486052097	-0.1355440174599528	-0.06643639957928524	-0.4301742526905551	0.705931106055636	-0.1681545747075245	-0.1681545747075275	0.3166998193742935	-0.0105564429301426	-0.09570456615208753	0.0120297764940915	1.176328064657214e-07	1.156697541891378e-07	-8.901492982895054e-07	1.05683852550385e-06	2.918456284388023e-08	1.655943868833387e-07	-1.12658254890519e-06
1.55	-0.05179970961039753	0.08449447970883535	0.9049743042432368	0.4710397767832692	-0.2200934151228573	-0.1811134267565016	-0.2285328555037933	0.4663425579491817	0.4663425579492123	0.05757736025124607	0.1745208532131802	0.2109248951205123	0.05521706959237599	0.08129803476289342	0.08318844420668216	0.2069028959448517	-1.068324387317076	0.008708782646931802	-0.2510685356982203	0.7350114678701387	-1.501613062800802	-1.501613062800856	0.2967283821765281	2.392905514199509e-05	-0.6043906810656051	-0.1588930817528382	-0.005352082222430666	-0.031203647974009	-0.000703545833798866	-0.2941438553506628	0.07674617500561508	-0.01823910700986778	0.07508538010135228	-41.3365854069236	-17.43919659339964	-5.995357495182657	-4.271838439316565	1.179869323579734	-660.3077815650281	60.33588007430789	-0.04233667847967476	0.1286967556610371	-0.4774007358621082	-0.04532930668366656	-0.09053316255271518	-0.4104893984877733	0.6375726364287833	-0.03768167406742112	-0.03768167408112534	0.3559379982979309	0.004972020041127277	-0.05325438872773727	-0.007577679307982801	1.270514435387179e-07	1.202718232474202e-07	-9.976726775760439e-07	1.079594253102273e-06	3.528939628347452e-08	1.875728746276063e-07	-1.194371706835614e-06
1.56	-0.05098895721161568	0.08533261184826604	0.9070191203606275	0.460356008456219	-0.2200104659812373	-0.1836444847430637	-0.2211520950965359	0.4513269329549386	0.4513269329549376	0.06056131603197117	0.1745210758260917	0.20487937003479	0.05362852155385406	0.08083877003601832	0.08442020101403856	0.2020242713921576	-1.068267103446229	0.007879694251398452	-0.255120705753103	0.7410220030256354	-1.501283502288019	-1.501283502288165	0.3000397837995636	1.870232455641397e-05	-0.6046269186318343	-0.1587944711835727	-0.0008053231703251844	-0.03314753564227742	-0.001285697257344659	-0.291639425497676	0.08136323202962047	-0.01936471896608763	0.07073739544314922	-41.67335535740357	-15.94221316703807	-6.148797011023412	-4.331105721813213	0.6362563648293568	-658.7569495297994	60.47975469937806	-0.04902290542387176	0.1174528585431604	-0.498048964990096	0.059166216204683	-0.0674154347606581	-0.4017726261294567	0.5635984402452641	0.1057542866342502	0.1057542866342485	0.2885755561263173	-0.01132093599258555	0.009369092838940727	0.03819677881546286	1.368151636474317e-07	1.25538885562371e-07	-1.105395845014712e-06	1.104832673183076e-06	4.082781185126095e-08	2.122874532714476e-07	-1.262269092391654e-06
1.57	-0.05018305055647514	0.08618252583078338	0.9090141562293758	0.4496774362953642	-0.2199358740983521	-0.186215494454867	-0.213714987397559	0.4363213661593149	0.4363213661593091	0.06357772266208882	0.1745213786383425	0.1988340825967832	0.05204155713595996	0.08032991966816895	0.08554379299287414	0.1969517466601325	-1.067281340845585	0.00703768350731275	-0.2590489168676472	0.7462765068979419	-1.499592854521835	-1.499592854521868	0.3032162619907533	3.576495714185899e-05	-0.604338084551767	-0.158575857746105	0.003790307314912799	-0.03514949631364969	-0.001870265034866841	-0.2892906480181158	0.08613255195722086	-0.02068617844800149	0.06637501707606548	-41.97017736284784	-14.4164603676107	-6.390236799539069	-4.367226512451107	0.09933426670634156	-657.3682473283502	60.50326263514116	-0.0537032249808559	0.1070016806858963	-0.5164762577378769	0.143192296197487	-0.09268203270266658	-0.3832812591729257	0.4879218800468794	0.2362397935227365	0.2362397935396948	0.3282989171096551	0.007506473488825501	0.05254010495807718	0.01701176972882684	1.470102375507921e-07	1.316371894481574e-07	-1.213368747643544e-06	1.133174458866853e-06	4.56582050792876e-08	2.40422145539756e-07	-1.330301762479712e-06
1.58	-0.04938260982950481	0.08704311359571602	0.9109575424447182	0.4390137039633627	-0.2198697199505991	-0.1888247734588284	-0.2062290255559927	0.4213398097956979	0.4213398097957263	0.06662511706738629	0.1745217093991465	0.1927944634074513	0.05045744248114389	0.07974558439967504	0.08655495749709524	0.1916943407109956	-1.065299137676808	0.006192147224427231	-0.2627745641844426	0.7507928315431655	-1.496481415879159	-1.496481415879078	0.3062373388417219	2.429201390952732e-05	-0.6034932688970029	-0.1582245185679827	0.00838593780012579	-0.03715145698504196	-0.002454832811850513	-0.2869418705385895	0.0909018718848081	-0.02200763792995216	0.06201263870896855	-42.2276072878001	-12.89239979519442	-6.627341299517758	-4.409329479283428	-0.4624117202104626	-656.0312236956241	60.59659479062985	-0.06411988555262685	0.09496736362017781	-0.5350252084124451	0.2584543298310461	-0.06812054252063303	-0.3612598665796096	0.4159625948287636	0.3899124619329058	0.3899124619329049	0.2574952880820603	-0.01702805115620876	0.1205654077781902	0.06474192694638316	1.582148381670189e-07	1.369676097842249e-07	-1.334601428872002e-06	1.15449238688592e-06	5.20829617529952e-08	2.679614974155686e-07	-1.397644750175162e-06
